<?xml version="1.0" standalone="no"?>
<!DOCTYPE svg PUBLIC "-//W3C//DTD SVG 20010904//EN"
 "http://www.w3.org/TR/2001/REC-SVG-20010904/DTD/svg10.dtd">
<svg version="1.0" xmlns="http://www.w3.org/2000/svg"
 width="256.000000pt" height="256.000000pt" viewBox="0 0 256.000000 256.000000"
 preserveAspectRatio="xMidYMid meet">
<metadata>
Created by potrace 1.11, written by Peter Selinger 2001-2013
</metadata>
<g transform="translate(0.000000,256.000000) scale(0.100000,-0.100000)"
fill="#000000" stroke="none">
<path d="M0 1280 l0 -1280 1280 0 1280 0 0 1280 0 1280 -1280 0 -1280 0 0
-1280z m755 84 l280 -355 3 355 2 356 50 0 50 0 0 -450 0 -450 -42 0 -43 1
-280 355 -280 356 -3 -356 -2 -356 -50 0 -50 0 0 450 0 450 43 0 42 -1 280
-355z m775 156 l0 -200 275 0 275 0 0 200 0 200 50 0 50 0 0 -450 0 -450 -50
0 -50 0 0 210 0 210 -275 0 -275 0 0 -210 0 -210 -50 0 -50 0 0 450 0 450 50
0 50 0 0 -200z"/>
</g>
</svg>
